<svg width="210" height="193" viewBox="0 0 210 193" fill="none" xmlns="http://www.w3.org/2000/svg">
<mask id="mask0_581_1725" style="mask-type:luminance" maskUnits="userSpaceOnUse" x="0" y="0" width="210" height="193">
<path d="M209.169 0H0V192.735H209.169V0Z" fill="white"/>
</mask>
<g mask="url(#mask0_581_1725)">
<path d="M77.613 61.377C78.503 60.4921 79.209 59.4398 79.6905 58.2808C80.1719 57.1218 80.4193 55.879 80.4182 54.624C80.4172 53.369 80.1678 52.1266 79.6844 50.9684C79.2011 49.8102 78.4933 48.7591 77.6019 47.8756C76.7105 46.9922 75.653 46.2939 74.4905 45.821C73.328 45.3481 72.0834 45.1099 70.8285 45.1201C69.5735 45.1304 68.333 45.3889 67.1783 45.8807C66.0237 46.3726 64.9778 47.0881 64.101 47.986C56.1762 55.9914 50.8027 66.1665 48.6597 77.2253C46.5167 88.284 47.7004 99.7299 52.0613 110.116C56.4221 120.502 63.7642 129.362 73.1596 135.576C82.555 141.791 93.5817 145.08 104.846 145.028C116.11 144.977 127.107 141.587 136.445 135.287C145.783 128.987 153.044 120.06 157.309 109.634C161.575 99.2085 162.654 87.7523 160.409 76.7137C158.165 65.675 152.699 55.5495 144.701 47.617C143.814 46.7377 142.762 46.0418 141.605 45.5691C140.449 45.0964 139.211 44.8561 137.961 44.8619C136.712 44.8677 135.476 45.1195 134.324 45.603C133.172 46.0864 132.127 46.792 131.247 47.6795C130.368 48.5669 129.672 49.6189 129.2 50.7753C128.727 51.9317 128.487 53.1699 128.492 54.4192C128.498 55.6684 128.75 56.9043 129.233 58.0563C129.717 59.2083 130.423 60.2537 131.31 61.133C136.643 66.4188 140.29 73.1675 141.788 80.5255C143.286 87.8836 142.568 95.5206 139.726 102.471C136.884 109.421 132.045 115.373 125.82 119.573C119.596 123.773 112.266 126.033 104.757 126.068C97.248 126.102 89.8974 123.909 83.6348 119.766C77.3721 115.623 72.4785 109.716 69.5728 102.792C66.6671 95.8683 65.8798 88.2382 67.3104 80.8667C68.741 73.4952 72.3253 66.7135 77.61 61.379L77.613 61.377Z" fill="url(#paint0_linear_581_1725)"/>
<path d="M144.539 3.36376e-05C138.291 0.0113381 132.107 1.26185 126.345 3.6792C120.583 6.09655 115.358 9.63272 110.972 14.083C109.195 15.8725 106.781 16.884 104.259 16.8954C101.737 16.9069 99.3132 15.9174 97.52 14.144C88.5528 5.27956 76.4358 0.333727 63.8268 0.391467C51.2179 0.449208 39.1466 5.5058 30.261 14.452C15.711 29.1489 5.8449 47.8296 1.90986 68.1327C-2.02518 88.4358 0.147492 109.45 8.15327 128.518C16.159 147.587 29.6385 163.854 46.8876 175.263C64.1368 186.672 84.3813 192.711 105.062 192.616C125.743 192.522 145.931 186.298 163.075 174.732C180.22 163.166 193.55 146.776 201.381 127.636C209.212 108.495 211.193 87.4617 207.072 67.1954C202.952 46.9291 192.916 28.3393 178.232 13.776C173.806 9.36613 168.549 5.87791 162.765 3.51326C156.982 1.14861 150.787 -0.0454912 144.539 3.36376e-05ZM164.839 27.289C176.867 39.2069 185.09 54.4236 188.469 71.0151C191.848 87.6065 190.232 104.827 183.824 120.5C177.416 136.173 166.505 149.593 152.469 159.065C138.434 168.536 121.905 173.633 104.973 173.71C88.0413 173.788 71.4667 168.843 57.3453 159.5C43.2239 150.158 32.1899 136.837 25.6388 121.224C19.0877 105.611 17.3137 88.4052 20.541 71.7835C23.7683 55.1618 31.8521 39.8704 43.77 27.843C49.1019 22.4753 56.345 19.4414 63.9107 19.4067C71.4765 19.372 78.7471 22.3394 84.128 27.658C89.5076 32.977 96.7775 35.9447 104.343 35.9103C111.908 35.8758 119.15 32.8418 124.481 27.474C129.808 22.0984 137.053 19.0589 144.621 19.0242C152.189 18.9895 159.461 21.9624 164.837 27.289" fill="url(#paint1_linear_581_1725)"/>
<path d="M104.584 104.938C113.12 104.938 120.039 98.0186 120.039 89.4831C120.039 80.9475 113.12 74.0281 104.584 74.0281C96.0484 74.0281 89.129 80.9475 89.129 89.4831C89.129 98.0186 96.0484 104.938 104.584 104.938Z" fill="url(#paint2_linear_581_1725)"/>
</g>
<defs>
<linearGradient id="paint0_linear_581_1725" x1="104.585" y1="202.725" x2="104.585" y2="0.588039" gradientUnits="userSpaceOnUse">
<stop stop-color="#00CD9E"/>
<stop offset="1" stop-color="#38A3DC"/>
</linearGradient>
<linearGradient id="paint1_linear_581_1725" x1="104.584" y1="202.634" x2="104.584" y2="0.576629" gradientUnits="userSpaceOnUse">
<stop stop-color="#00CD9E"/>
<stop offset="1" stop-color="#38A3DC"/>
</linearGradient>
<linearGradient id="paint2_linear_581_1725" x1="104.584" y1="202.799" x2="104.584" y2="0.585918" gradientUnits="userSpaceOnUse">
<stop stop-color="#00AB9E"/>
<stop offset="1" stop-color="#38A3DC"/>
</linearGradient>
</defs>
</svg>
